<svg xmlns="http://www.w3.org/2000/svg" version="1.1" xmlns:xlink="http://www.w3.org/1999/xlink" width="1000" height="1000"><style>
    #light-icon {
      display: inline;
    }
    #dark-icon {
      display: none;
    }

    @media (prefers-color-scheme: dark) {
      #light-icon {
        display: none;
      }
      #dark-icon {
        display: inline;
      }
    }
  </style><g id="light-icon"><svg xmlns="http://www.w3.org/2000/svg" version="1.1" xmlns:xlink="http://www.w3.org/1999/xlink" width="1000" height="1000"><g><g transform="matrix(5.714285714285714,0,0,5.714285714285714,0,0)"><svg xmlns="http://www.w3.org/2000/svg" viewBox="0 0 175 175" width="175" height="175"><path fill="none" stroke="#000" stroke-width="13" d="M61.5 67.8C56.1 17 114 20.1 114 49.5"></path><path fill="#c3c3c3" stroke="#000" stroke-width="12" d="M56.2 65.5h62.6a10 10 0 0 1 10 10v62.6a10 10 0 0 1-10 10H56.2a10 10 0 0 1-10-10V75.5a10 10 0 0 1 10-10Z"></path><path fill="none" stroke="#000" stroke-linecap="round" stroke-linejoin="round" stroke-width="13" d="M66.6 102.3c0 26.2 41.8 26.2 41.8 0"></path></svg></g></g></svg></g><g id="dark-icon"><svg xmlns="http://www.w3.org/2000/svg" version="1.1" xmlns:xlink="http://www.w3.org/1999/xlink" width="1000" height="1000"><g clip-path="url(#SvgjsClipPath1170)"><rect width="1000" height="1000" fill="#ffffff"></rect><g transform="matrix(5.142857142857143,0,0,5.142857142857143,49.99999999999994,49.99999999999994)"><svg xmlns="http://www.w3.org/2000/svg" viewBox="0 0 175 175" width="175" height="175"><path fill="none" stroke="#000" stroke-width="13" d="M61.5 67.8C56.1 17 114 20.1 114 49.5"></path><path fill="#c3c3c3" stroke="#000" stroke-width="12" d="M56.2 65.5h62.6a10 10 0 0 1 10 10v62.6a10 10 0 0 1-10 10H56.2a10 10 0 0 1-10-10V75.5a10 10 0 0 1 10-10Z"></path><path fill="none" stroke="#000" stroke-linecap="round" stroke-linejoin="round" stroke-width="13" d="M66.6 102.3c0 26.2 41.8 26.2 41.8 0"></path></svg></g></g><defs><clipPath id="SvgjsClipPath1170"><rect width="1000" height="1000" x="0" y="0" rx="500" ry="500"></rect></clipPath></defs></svg></g></svg>